<svg xmlns="http://www.w3.org/2000/svg" width="323.748" height="385" viewBox="0 0 323.748 385">
  <g id="Group_398" data-name="Group 398" transform="translate(-239.388 -297.131)">
    <path id="Path_346" data-name="Path 346" d="M465.016,425.618c-33.974-1.875-59.344,25.891-74.277,53.9,5.916-21.164,7.6-43.383,1.432-63.571a22.718,22.718,0,0,0-3.5-6.953c4.616-.773,9.167-1.69,13.6-2.744,33.341-7.93,74.355-28.785,78.974-67.5,4.1-34.354-31.463-58.085-59.3-33.108-17.513,15.721-29.522,35.711-49.593,48.928-18.8,12.375-47.041,28.117-69.574,28.033-12.384-.045-12.237,8.193-1.672,14.858,22.329,13.456,50.572,16.036,77.443,12.959a20.427,20.427,0,0,0-1.2,3.535c-5.4,21.874-27.545,45.438-44.123,60.659-17.7,16.251-40.016,23.034-59.523,36.193-31,20.916-16.641,61.183,17.68,65.569,38.677,4.943,68.888-29.762,84.693-60.167l.036-.075c-7.261,25.439-9.272,52.978-.1,76.739,4.736,11.56,12.824,13.13,14.921.926,3.816-22.207,24.208-47.3,39.65-63.672,16.488-17.483,38.257-25.852,56.767-40.381C516.78,466.658,499.558,427.526,465.016,425.618Z" transform="translate(21.765 40.858)" fill="rgba(252,249,238,0.19)"/>
  </g>
</svg>
